<svg width="1440" height="812" viewBox="0 0 1440 812" fill="none" xmlns="http://www.w3.org/2000/svg">
<path d="M1440 62H0V783.719C240 709.418 782.367 704.088 952 783.719C1094 850.378 1249 783.719 1440 703.528V62Z" fill="#024D8C" stroke="#002357"/>
<g filter="url(#filter0_d_126_3)">
<path d="M1373 11.5C1213.69 24.697 192.314 61.3851 -0.50005 43C-0.50019 81.6612 -0.500315 85.5 -0.500197 106C15.0282 101.567 1170.29 74.0201 1431.55 74.0201C1444.5 74.0201 1440.52 58.6029 1440.52 54.0326V29.0483C1440.52 -14.6989 1457.5 4.5 1373 11.5Z" fill="#FFBE0C"/>
<path d="M1373 11.5C1213.69 24.697 192.314 61.3851 -0.50005 43C-0.50019 81.6612 -0.500315 85.5 -0.500197 106C15.0282 101.567 1170.29 74.0201 1431.55 74.0201C1444.5 74.0201 1440.52 58.6029 1440.52 54.0326V29.0483C1440.52 -14.6989 1457.5 4.5 1373 11.5Z" stroke="#D0B000"/>
</g>
<defs>
<filter id="filter0_d_126_3" x="-5.00024" y="0.738953" width="1451.41" height="113.924" filterUnits="userSpaceOnUse" color-interpolation-filters="sRGB">
<feFlood flood-opacity="0" result="BackgroundImageFix"/>
<feColorMatrix in="SourceAlpha" type="matrix" values="0 0 0 0 0 0 0 0 0 0 0 0 0 0 0 0 0 0 127 0" result="hardAlpha"/>
<feOffset dy="4"/>
<feGaussianBlur stdDeviation="2"/>
<feComposite in2="hardAlpha" operator="out"/>
<feColorMatrix type="matrix" values="0 0 0 0 0 0 0 0 0 0 0 0 0 0 0 0 0 0 0.25 0"/>
<feBlend mode="normal" in2="BackgroundImageFix" result="effect1_dropShadow_126_3"/>
<feBlend mode="normal" in="SourceGraphic" in2="effect1_dropShadow_126_3" result="shape"/>
</filter>
</defs>
</svg>
