<svg width="1440" height="813" viewBox="0 0 1440 813" fill="none" xmlns="http://www.w3.org/2000/svg">
<path d="M452 1.79876C244.091 -0.552899 85.2962 61.4068 0 82.637V746H1439.37V1.79882C1443.7 -1.46737 1427.58 3.56254 1328.42 49.8118C1204.48 107.623 992.978 117.866 943 87C893.022 56.1346 711.887 4.73833 452 1.79876Z" fill="#024D8C" stroke="#002357"/>
<g filter="url(#filter0_d_135_4)">
<path d="M66.9148 793.503C226.221 780.313 1247.6 743.669 1440.42 762.063C1440.42 723.402 1440.42 719.563 1440.42 699.063C1424.89 703.495 269.623 730.992 8.36804 730.98C-4.58741 730.98 -0.601872 746.397 -0.602071 750.967L-0.603159 775.952C-0.605064 819.699 -17.5856 800.499 66.9148 793.503Z" fill="#FFBE0C"/>
<path d="M66.9148 793.503C226.221 780.313 1247.6 743.669 1440.42 762.063C1440.42 723.402 1440.42 719.563 1440.42 699.063C1424.89 703.495 269.623 730.992 8.36804 730.98C-4.58741 730.98 -0.601872 746.397 -0.602071 750.967L-0.603159 775.952C-0.605064 819.699 -17.5856 800.499 66.9148 793.503Z" stroke="#D0B000"/>
</g>
<defs>
<filter id="filter0_d_135_4" x="-6.5" y="698.4" width="1451.42" height="113.861" filterUnits="userSpaceOnUse" color-interpolation-filters="sRGB">
<feFlood flood-opacity="0" result="BackgroundImageFix"/>
<feColorMatrix in="SourceAlpha" type="matrix" values="0 0 0 0 0 0 0 0 0 0 0 0 0 0 0 0 0 0 127 0" result="hardAlpha"/>
<feOffset dy="4"/>
<feGaussianBlur stdDeviation="2"/>
<feComposite in2="hardAlpha" operator="out"/>
<feColorMatrix type="matrix" values="0 0 0 0 0 0 0 0 0 0 0 0 0 0 0 0 0 0 0.25 0"/>
<feBlend mode="normal" in2="BackgroundImageFix" result="effect1_dropShadow_135_4"/>
<feBlend mode="normal" in="SourceGraphic" in2="effect1_dropShadow_135_4" result="shape"/>
</filter>
</defs>
</svg>
