<svg width="98" height="93" viewBox="0 0 98 93" fill="none" xmlns="http://www.w3.org/2000/svg">
<path d="M59.6328 39.841C39.1618 22.018 29.6801 32.4147 27.4981 39.841C16.3899 64.8584 34.3747 68.9326 44.7556 67.8426C58.2442 65.9349 80.1037 57.6639 59.6328 39.841Z" fill="#FFBE0C" stroke="#FFBE0C"/>
<path d="M4.56466 32.0249C4.98539 34.0658 16.0091 38.7615 21.4684 40.8543C23.485 41.6463 25.5943 38.1313 24.1971 35.125C23.0793 32.72 14.5534 29.3289 10.4301 27.934C8.29967 28.4473 4.14394 29.984 4.56466 32.0249Z" fill="#FFBE0C" stroke="#FFBE0C"/>
<path d="M53.5369 28.5608C55.8639 28.9052 59.0947 20.5324 60.4192 16.3029C60.9309 14.7473 60.1141 8.28884 56.8506 8.4901C54.2399 8.65111 48.2369 18.4949 47.4563 21.7556C48.4598 27.72 51.21 28.2163 53.5369 28.5608Z" fill="#FFBE0C" stroke="#FFBE0C"/>
<path d="M21.6484 45.654C20.2825 44.1331 8.52591 46.0671 2.81835 47.2243C0.700707 47.6355 0.6256 51.7862 3.30362 53.6065C5.44604 55.0627 14.1125 56.1668 18.3318 55.1338C21.3407 56.4126 23.0144 47.175 21.6484 45.654Z" fill="#FFBE0C" stroke="#FFBE0C"/>
<path d="M9.76625 79.2158C11.8992 80.2652 20.6113 70.8748 25.0088 66.8551C28.7137 63.8507 24.8399 62.3179 21.3562 61.5602C18.5693 60.954 11.5844 67.1429 8.44028 70.3131C7.99353 72.8435 7.63328 78.1664 9.76625 79.2158Z" fill="#FFBE0C" stroke="#FFBE0C"/>
<path d="M78.3915 22.203C76.5274 21.4713 66.7857 28.6297 62.1479 32.3004C60.4196 33.6461 62.0932 37.3979 65.2606 37.792C67.7945 38.1072 75.1359 32.4409 78.4899 29.5683C79.2338 27.418 80.2555 22.9346 78.3915 22.203Z" fill="#FFBE0C" stroke="#FFBE0C"/>
<path d="M82.3455 74.1319C82.4447 72.0653 73.0905 64.8314 68.401 61.4728C66.6733 60.214 63.8018 63.0747 64.3965 66.3105C64.8722 68.8992 72.1659 74.2625 75.7533 76.6205C77.9093 76.6521 82.2462 76.1986 82.3455 74.1319Z" fill="#FFBE0C" stroke="#FFBE0C"/>
<path d="M22.5428 10.2273C21.6126 12.0529 27.1346 22.7698 30.0119 27.9C31.0632 29.8095 34.8246 28.5018 35.6024 25.3088C36.2246 22.7544 31.8063 14.6489 29.5193 10.9155C27.5814 9.92543 23.473 8.40166 22.5428 10.2273Z" fill="#FFBE0C" stroke="#FFBE0C"/>
<path d="M64.1889 91.1173C64.8157 88.9517 57.0585 76.3683 53.1015 70.3473C51.6493 68.1061 47.9772 69.6938 47.7652 73.4714C47.5956 76.4936 53.7145 86.0078 56.7951 90.3872C58.9985 91.5329 63.5621 93.2829 64.1889 91.1173Z" fill="#FFBE0C" stroke="#FFBE0C"/>
<path d="M96.5011 47.7931C95.1656 45.3717 80.0379 44.922 72.641 44.9999C69.9009 45.0042 68.8036 50.6178 71.7029 53.7886C74.0223 56.3252 85.6243 56.3621 91.1354 56.0634C93.4804 54.3156 97.8366 50.2145 96.5011 47.7931Z" fill="#FFBE0C" stroke="#FFBE0C"/>
<path d="M32.5509 71.142C30.5705 71.3829 25.0401 82.4185 22.5225 87.9062C21.5746 89.9314 24.711 92.4704 27.7034 91.3051C30.0974 90.3729 34.1459 81.8145 35.8709 77.6519C35.5894 75.3816 34.5313 70.9011 32.5509 71.142Z" fill="#FFBE0C" stroke="#FFBE0C"/>
<path d="M57.1541 42.9923C40.4051 30.3286 32.6474 37.7157 30.8621 42.9923C21.7735 60.7678 36.4884 63.6627 44.9819 62.8881C56.018 61.5327 73.903 55.6559 57.1541 42.9923Z" fill="#024D8C" stroke="#FFBE0C"/>
</svg>
